<svg xmlns="http://www.w3.org/2000/svg" viewBox="0 0 1024 1024" role="img" aria-labelledby="title desc">
  <title id="title">Face Cam VR</title>
  <desc id="desc">A minimal Focus L icon with a centered viewing point.</desc>
  <defs>
    <clipPath id="mask">
      <path d="M512 32C205 32 32 205 32 512s173 480 480 480 480-173 480-480S819 32 512 32Z" />
    </clipPath>
    <radialGradient id="bg" cx="30%" cy="18%" r="94%">
      <stop offset="0" stop-color="#F7FCFF" />
      <stop offset="0.35" stop-color="#72D9FF" />
      <stop offset="0.72" stop-color="#2367E8" />
      <stop offset="1" stop-color="#071225" />
    </radialGradient>
    <linearGradient id="mark" x1="230" y1="208" x2="760" y2="820" gradientUnits="userSpaceOnUse">
      <stop offset="0" stop-color="#FFFFFF" />
      <stop offset="0.55" stop-color="#EAFBFF" />
      <stop offset="1" stop-color="#D7F1FF" />
    </linearGradient>
    <filter id="shadow" x="-20%" y="-20%" width="140%" height="150%">
      <feDropShadow dx="0" dy="34" stdDeviation="38" flood-color="#041027" flood-opacity="0.28" />
    </filter>
  </defs>

  <g clip-path="url(#mask)">
    <rect width="1024" height="1024" fill="url(#bg)" />
    <circle cx="234" cy="150" r="286" fill="#FFFFFF" opacity="0.15" />
    <path d="M120 706C270 386 504 236 826 250c-140 76-230 218-270 424-146 38-292 48-436 32Z" fill="#FFFFFF" opacity="0.12" />

    <g filter="url(#shadow)">
      <path d="M244 220h236v430h300v154H244V220Z" fill="url(#mark)" />
    </g>

    <circle cx="512" cy="512" r="86" fill="#071225" opacity="0.86" />
    <circle cx="512" cy="512" r="30" fill="#F7FCFF" />
  </g>
</svg>
